<?xml version="1.0" encoding="utf-8"?>
<!-- Generator: Adobe Illustrator 16.0.0, SVG Export Plug-In . SVG Version: 6.00 Build 0)  -->
<!DOCTYPE svg PUBLIC "-//W3C//DTD SVG 1.1//EN" "http://www.w3.org/Graphics/SVG/1.1/DTD/svg11.dtd">
<svg version="1.1" id="Layer_1" xmlns="http://www.w3.org/2000/svg" xmlns:xlink="http://www.w3.org/1999/xlink" x="0px" y="0px"
	 width="508px" height="508px" viewBox="0 0 508 508" enable-background="new 0 0 508 508" xml:space="preserve">
<ellipse opacity="0.7" fill-rule="evenodd" clip-rule="evenodd" fill="#FFFFFF" cx="254.002" cy="254.002" rx="252.234" ry="249.883"/>
<path fill-rule="evenodd" clip-rule="evenodd" fill="#D60000" d="M346.412,336.288c29.801,40.836,60.867,37.551,82.008-8.68
	c53.195-116.32-35.469-254.578-163.711-260.492c-98.18-4.523-196.535,66.219-198.859,186.43
	c-1.73,89.41,57.117,167.41,150.258,183.762c41.492,7.281,74.43,28.262,113.105,41.113c-62.586,30.363-165.73,12.68-224.727-37.781
	C28.443,375.592-0.959,292.893,23.088,196.483C47.193,99.831,112.74,38.909,210.354,20.127
	c151.07-29.07,270.473,85.48,282.184,208.285c4.695,49.176-3.758,94.605-27.047,137.781c-16.578,30.75-39.883,48.266-76.996,46.957
	c-36.246-1.273-60.652-17.281-75.48-49.543C318.818,347.987,329.545,338.381,346.412,336.288z"/>
<path fill-rule="evenodd" clip-rule="evenodd" fill="#D60000" d="M346.412,336.288c-11.133,9.113-22.262,18.223-33.395,27.328
	c-38.016,13.77-75.848,18-113.629-1.133c-48.918-24.777-75.578-80.441-63.887-134.133c11.895-54.625,60.258-93.793,116.555-94.41
	c57.906-0.633,106.617,35.371,120.66,89.242c0.785,3.008,1.18,6.141,1.57,9.238c4.66,37.07,3.926,37.891-33.652,37.891
	c-39.949,0-79.93,0.984-119.828-0.406c-19.578-0.684-20.246,7.445-15.594,22.027c11.449,35.883,66.137,47.926,96.066,18.125
	c18.25-18.176,37.566-10.102,56.727-11.375c8.227-0.543,7.582,6.633,4.648,11.82C357.658,319.334,351.869,327.713,346.412,336.288z
	 M290.15,232.206c17.695,1.004,17.223-7.598,12.219-20.23c-7.68-19.359-23.234-27.152-42.34-28.047
	c-21.332-1-40.383,4.77-51.895,25.02c-10.223,17.973-7.391,22.719,13.891,23.113c10.18,0.188,20.363,0.035,30.543,0.02
	C265.1,232.065,277.662,231.495,290.15,232.206z"/>
</svg>
